# xmcd
#
# Track frame offsets: 
#        150
#        14100
#        26700
#        44400
#        63600
#        70763
#        84076
#        98776
#        108301
#        124651
#        136201
#        148417
#
# Disc length: 2146 seconds
#
# Revision: 0
# Processed by: cddbd v1.5.2PL0 Copyright (c) Steve Scherf et al.
# Submitted via: ExactAudioCopyFreeDBPlugin 1.0
#
DISCID=ab08600c
DTITLE=Tyriss - Utopie
DYEAR=2012
DGENRE=Hip-Hop
TTITLE0=Je Commence L'année feat. Kekos and Olkidor
TTITLE1=On S'relève
TTITLE2=La Monnaie
TTITLE3=Mon Parcours feat. C-Kor, Olkidor and Kekos
TTITLE4=Mon Utopie
TTITLE5=Je Lance Un Appel
TTITLE6=Négative
TTITLE7=La Musique feat. Spiral
TTITLE8=Comme Un Enfant
TTITLE9=J'ai Pacsé L'blues feat. Kekos
TTITLE10=Un Regard En L'air
TTITLE11=Y'aura Toujours
EXTD=
EXTT0=
EXTT1=
EXTT2=
EXTT3=
EXTT4=
EXTT5=
EXTT6=
EXTT7=
EXTT8=
EXTT9=
EXTT10=
EXTT11=
PLAYORDER=
